<svg xmlns="http://www.w3.org/2000/svg" xmlns:xlink="http://www.w3.org/1999/xlink" version="1.1" width="256" height="256" viewBox="0 0 256 256" xml:space="preserve">

<defs>
</defs>
<g style="stroke: none; stroke-width: 0; stroke-dasharray: none; stroke-linecap: butt; stroke-linejoin: miter; stroke-miterlimit: 10; fill: none; fill-rule: nonzero; opacity: 1;" transform="translate(1.4065934065934016 1.4065934065934016) scale(2.81 2.81)" >
	<path d="M 45.503 86.941 h -21.5 c -0.283 0 -0.552 -0.12 -0.742 -0.329 c -0.189 -0.21 -0.282 -0.49 -0.253 -0.771 l 3.347 -33.153 c 0.052 -0.511 0.482 -0.899 0.995 -0.899 h 14.807 c 0.513 0 0.943 0.389 0.995 0.899 l 3.347 33.153 c 0.028 0.281 -0.063 0.562 -0.253 0.771 C 46.055 86.821 45.786 86.941 45.503 86.941 z M 25.109 84.941 h 19.288 l -3.145 -31.153 H 28.254 L 25.109 84.941 z" style="stroke: none; stroke-width: 1; stroke-dasharray: none; stroke-linecap: butt; stroke-linejoin: miter; stroke-miterlimit: 10; fill: rgb(0,0,0); fill-rule: nonzero; opacity: 1;" transform=" matrix(1 0 0 1 0 0) " stroke-linecap="round" />
	<path d="M 43.83 53.788 H 25.676 c -0.552 0 -1 -0.447 -1 -1 v -6.311 c 0 -0.552 0.448 -1 1 -1 H 43.83 c 0.552 0 1 0.448 1 1 v 6.311 C 44.83 53.341 44.382 53.788 43.83 53.788 z M 26.676 51.788 H 42.83 v -4.311 H 26.676 V 51.788 z" style="stroke: none; stroke-width: 1; stroke-dasharray: none; stroke-linecap: butt; stroke-linejoin: miter; stroke-miterlimit: 10; fill: rgb(0,0,0); fill-rule: nonzero; opacity: 1;" transform=" matrix(1 0 0 1 0 0) " stroke-linecap="round" />
	<path d="M 69.123 86.941 H 52.041 c -0.282 0 -0.552 -0.12 -0.742 -0.329 c -0.189 -0.21 -0.281 -0.49 -0.253 -0.771 l 2.659 -26.342 c 0.052 -0.511 0.481 -0.899 0.995 -0.899 h 11.764 c 0.514 0 0.943 0.389 0.995 0.899 l 2.659 26.342 c 0.028 0.281 -0.063 0.562 -0.253 0.771 C 69.675 86.821 69.405 86.941 69.123 86.941 z M 53.147 84.941 h 14.869 L 65.56 60.6 h -9.955 L 53.147 84.941 z" style="stroke: none; stroke-width: 1; stroke-dasharray: none; stroke-linecap: butt; stroke-linejoin: miter; stroke-miterlimit: 10; fill: rgb(0,0,0); fill-rule: nonzero; opacity: 1;" transform=" matrix(1 0 0 1 0 0) " stroke-linecap="round" />
	<path d="M 67.794 60.6 H 53.37 c -0.553 0 -1 -0.447 -1 -1 v -5.015 c 0 -0.553 0.447 -1 1 -1 h 14.424 c 0.553 0 1 0.447 1 1 V 59.6 C 68.794 60.152 68.347 60.6 67.794 60.6 z M 54.37 58.6 h 12.424 v -3.015 H 54.37 V 58.6 z" style="stroke: none; stroke-width: 1; stroke-dasharray: none; stroke-linecap: butt; stroke-linejoin: miter; stroke-miterlimit: 10; fill: rgb(0,0,0); fill-rule: nonzero; opacity: 1;" transform=" matrix(1 0 0 1 0 0) " stroke-linecap="round" />
	<path d="M 17.529 35.922 h -4.481 c -4.205 0 -7.626 -3.421 -7.626 -7.626 c 0 -4.206 3.421 -7.627 7.626 -7.627 h 5.039 c -0.096 -0.468 -0.144 -0.944 -0.144 -1.424 c 0 -3.985 3.243 -7.228 7.228 -7.228 h 7.532 c 0.66 -5.095 4.973 -8.958 10.21 -8.958 s 9.549 3.863 10.208 8.958 h 2.614 c 3.985 0 7.228 3.243 7.228 7.228 c 0 0.479 -0.049 0.955 -0.146 1.424 h 13.911 c 4.205 0 7.627 3.421 7.627 7.627 c 0 2.57 -1.282 4.951 -3.43 6.369 c -0.462 0.305 -1.081 0.178 -1.386 -0.284 c -0.304 -0.461 -0.177 -1.081 0.284 -1.385 c 1.585 -1.046 2.531 -2.803 2.531 -4.7 c 0 -3.103 -2.524 -5.627 -5.627 -5.627 H 61.459 c -0.336 0 -0.649 -0.168 -0.834 -0.448 c -0.186 -0.28 -0.218 -0.634 -0.086 -0.943 c 0.28 -0.66 0.423 -1.344 0.423 -2.033 c 0 -2.883 -2.345 -5.228 -5.228 -5.228 h -3.533 c -0.538 0 -0.979 -0.425 -0.999 -0.963 c -0.167 -4.483 -3.809 -7.995 -8.291 -7.995 s -8.124 3.512 -8.291 7.995 c -0.021 0.537 -0.462 0.962 -1 0.962 H 25.17 c -2.883 0 -5.228 2.345 -5.228 5.228 c 0 0.694 0.141 1.379 0.418 2.034 c 0.131 0.309 0.099 0.663 -0.086 0.943 c -0.186 0.28 -0.499 0.448 -0.834 0.448 h -6.393 c -3.103 0 -5.626 2.524 -5.626 5.627 s 2.524 5.626 5.626 5.626 h 4.481 c 0.552 0 1 0.448 1 1 S 18.081 35.922 17.529 35.922 z" style="stroke: none; stroke-width: 1; stroke-dasharray: none; stroke-linecap: butt; stroke-linejoin: miter; stroke-miterlimit: 10; fill: rgb(0,0,0); fill-rule: nonzero; opacity: 1;" transform=" matrix(1 0 0 1 0 0) " stroke-linecap="round" />
	<path d="M 27.095 56.31 h -6.551 c -4.471 0 -8.108 -3.638 -8.108 -8.108 c 0 -0.653 0.078 -1.297 0.233 -1.925 H 8.108 C 3.637 46.276 0 42.639 0 38.167 c 0 -3.995 2.977 -7.444 6.924 -8.022 c 0.545 -0.082 1.054 0.298 1.134 0.844 s -0.298 1.054 -0.844 1.134 C 4.242 32.559 2 35.157 2 38.167 c 0 3.368 2.74 6.108 6.108 6.108 h 5.963 c 0.34 0 0.656 0.172 0.84 0.458 s 0.211 0.645 0.071 0.955 c -0.363 0.801 -0.546 1.646 -0.546 2.513 c 0 3.368 2.74 6.108 6.108 6.108 h 6.551 c 0.552 0 1 0.447 1 1 S 27.647 56.31 27.095 56.31 z" style="stroke: none; stroke-width: 1; stroke-dasharray: none; stroke-linecap: butt; stroke-linejoin: miter; stroke-miterlimit: 10; fill: rgb(0,0,0); fill-rule: nonzero; opacity: 1;" transform=" matrix(1 0 0 1 0 0) " stroke-linecap="round" />
	<path d="M 54.437 63.205 h -11.33 c -0.552 0 -1 -0.447 -1 -1 s 0.448 -1 1 -1 h 11.33 c 0.553 0 1 0.447 1 1 S 54.989 63.205 54.437 63.205 z" style="stroke: none; stroke-width: 1; stroke-dasharray: none; stroke-linecap: butt; stroke-linejoin: miter; stroke-miterlimit: 10; fill: rgb(0,0,0); fill-rule: nonzero; opacity: 1;" transform=" matrix(1 0 0 1 0 0) " stroke-linecap="round" />
	<path d="M 72.78 56.31 h -4.986 c -0.553 0 -1 -0.447 -1 -1 s 0.447 -1 1 -1 h 4.986 c 3.368 0 6.108 -2.74 6.108 -6.108 c 0 -0.866 -0.184 -1.712 -0.547 -2.513 c -0.14 -0.31 -0.113 -0.669 0.07 -0.955 c 0.185 -0.286 0.501 -0.458 0.841 -0.458 h 2.639 c 3.368 0 6.108 -2.74 6.108 -6.108 c 0 -3.102 -2.319 -5.71 -5.395 -6.067 c -0.549 -0.063 -0.941 -0.56 -0.878 -1.108 s 0.559 -0.947 1.108 -0.878 C 86.92 30.588 90 34.05 90 38.167 c 0 4.471 -3.638 8.108 -8.108 8.108 h -1.236 c 0.155 0.629 0.233 1.272 0.233 1.926 C 80.889 52.672 77.251 56.31 72.78 56.31 z" style="stroke: none; stroke-width: 1; stroke-dasharray: none; stroke-linecap: butt; stroke-linejoin: miter; stroke-miterlimit: 10; fill: rgb(0,0,0); fill-rule: nonzero; opacity: 1;" transform=" matrix(1 0 0 1 0 0) " stroke-linecap="round" />
	<path d="M 65.664 55.585 H 55.5 c -0.372 0 -0.713 -0.206 -0.886 -0.535 c -0.503 -0.96 -0.77 -2.04 -0.77 -3.124 c 0 -0.999 0.223 -1.979 0.648 -2.877 c -1.655 -1.608 -2.589 -3.799 -2.589 -6.13 c 0 -0.185 0.008 -0.374 0.024 -0.573 c -1.47 -0.834 -2.646 -2.11 -3.354 -3.655 c -0.229 -0.502 -0.01 -1.096 0.493 -1.326 c 0.502 -0.233 1.096 -0.009 1.325 0.493 c 0.61 1.333 1.685 2.399 3.024 3.004 c 0.411 0.186 0.647 0.623 0.576 1.069 c -0.062 0.386 -0.09 0.701 -0.09 0.989 c 0 2.004 0.902 3.875 2.476 5.131 c 0.4 0.319 0.494 0.891 0.217 1.322 c -0.492 0.766 -0.752 1.648 -0.752 2.554 c 0 0.574 0.101 1.131 0.3 1.659 h 8.875 c 0.199 -0.528 0.3 -1.085 0.3 -1.659 c 0 -0.951 -0.28 -1.868 -0.812 -2.652 c -0.287 -0.424 -0.207 -0.996 0.185 -1.326 c 1.492 -1.254 2.348 -3.087 2.348 -5.029 c 0 -0.183 -0.021 -0.36 -0.039 -0.537 l -0.012 -0.107 c -0.051 -0.493 0.268 -0.949 0.748 -1.071 c 2.683 -0.683 4.556 -3.091 4.556 -5.856 c 0 -0.552 0.447 -1 1 -1 s 1 0.448 1 1 c 0 3.395 -2.122 6.386 -5.253 7.543 c 0 0.009 0 0.019 0 0.028 c 0 2.25 -0.879 4.386 -2.437 5.981 c 0.47 0.935 0.716 1.966 0.716 3.026 c 0 1.084 -0.267 2.164 -0.77 3.124 C 66.377 55.379 66.036 55.585 65.664 55.585 z" style="stroke: none; stroke-width: 1; stroke-dasharray: none; stroke-linecap: butt; stroke-linejoin: miter; stroke-miterlimit: 10; fill: rgb(0,0,0); fill-rule: nonzero; opacity: 1;" transform=" matrix(1 0 0 1 0 0) " stroke-linecap="round" />
	<path d="M 40.208 47.478 H 30.044 c -0.372 0 -0.713 -0.206 -0.886 -0.536 c -0.504 -0.961 -0.771 -2.042 -0.771 -3.124 c 0 -0.999 0.223 -1.979 0.648 -2.877 c -1.654 -1.609 -2.588 -3.8 -2.588 -6.13 c 0 -0.186 0.008 -0.375 0.024 -0.573 c -2.501 -1.42 -4.081 -4.092 -4.081 -6.998 c 0 -0.552 0.448 -1 1 -1 s 1 0.448 1 1 c 0 2.372 1.401 4.536 3.569 5.514 c 0.411 0.186 0.647 0.623 0.577 1.069 c -0.062 0.384 -0.09 0.699 -0.09 0.989 c 0 2.004 0.902 3.874 2.475 5.131 c 0.4 0.32 0.494 0.891 0.217 1.322 c -0.493 0.767 -0.753 1.65 -0.753 2.555 c 0 0.574 0.101 1.13 0.301 1.66 h 8.874 c 0.2 -0.529 0.301 -1.085 0.301 -1.66 c 0 -0.951 -0.281 -1.868 -0.812 -2.652 c -0.287 -0.424 -0.208 -0.997 0.185 -1.326 c 1.492 -1.253 2.348 -3.086 2.348 -5.029 c 0 -0.178 -0.02 -0.35 -0.038 -0.523 l -0.013 -0.123 c -0.049 -0.492 0.269 -0.947 0.748 -1.069 c 2.682 -0.683 4.555 -3.091 4.555 -5.856 c 0 -0.552 0.447 -1 1 -1 s 1 0.448 1 1 c 0 3.396 -2.121 6.386 -5.252 7.543 c 0 0.009 0 0.019 0 0.028 c 0 2.25 -0.879 4.386 -2.438 5.981 c 0.471 0.934 0.717 1.965 0.717 3.026 c 0 1.083 -0.267 2.164 -0.771 3.125 C 40.92 47.271 40.579 47.478 40.208 47.478 z" style="stroke: none; stroke-width: 1; stroke-dasharray: none; stroke-linecap: butt; stroke-linejoin: miter; stroke-miterlimit: 10; fill: rgb(0,0,0); fill-rule: nonzero; opacity: 1;" transform=" matrix(1 0 0 1 0 0) " stroke-linecap="round" />
</g>
</svg>