<?xml version="1.0" standalone="no"?>
<!DOCTYPE svg PUBLIC "-//W3C//DTD SVG 20010904//EN"
 "http://www.w3.org/TR/2001/REC-SVG-20010904/DTD/svg10.dtd">
<svg version="1.0" xmlns="http://www.w3.org/2000/svg"
 width="512.000000pt" height="512.000000pt" viewBox="0 0 512.000000 512.000000"
 preserveAspectRatio="xMidYMid meet">

<g transform="translate(0.000000,512.000000) scale(0.100000,-0.100000)"
fill="#000000" stroke="none">
<path d="M2875 5110 c-106 -21 -236 -91 -305 -164 l-34 -36 -81 7 c-61 5 -83
10 -93 24 -20 28 -92 67 -139 75 -65 10 -135 -12 -189 -59 -39 -34 -53 -41
-83 -39 -52 4 -136 -14 -197 -42 -97 -45 -184 -145 -219 -252 l-16 -51 -59 -6
c-124 -13 -272 -93 -359 -194 -49 -56 -106 -167 -122 -238 -7 -27 -13 -55 -15
-62 -1 -6 -18 -14 -36 -18 -53 -12 -127 -53 -177 -99 -40 -38 -54 -44 -106
-50 -111 -13 -193 -85 -215 -192 -10 -46 -20 -62 -64 -104 -56 -53 -96 -117
-117 -187 -11 -38 -16 -43 -41 -43 -62 0 -134 -52 -157 -113 -6 -16 -11 -88
-11 -160 0 -107 4 -140 19 -173 20 -45 70 -88 112 -99 24 -6 26 -10 23 -43 -3
-20 -47 -642 -100 -1382 -70 -989 -92 -1351 -85 -1367 22 -49 96 -55 125 -10
12 17 37 333 111 1377 53 745 98 1370 101 1388 l5 32 634 0 c349 0 635 -1 635
-2 1 -2 9 -117 20 -257 21 -281 24 -291 89 -293 51 -2 76 30 73 94 -2 72 -21
342 -28 403 -5 50 -5 51 30 63 100 36 125 91 126 265 0 134 -10 180 -50 222
-19 20 -19 21 15 64 19 24 35 48 35 52 0 5 38 8 85 8 46 0 89 2 95 6 6 3 26 1
46 -5 44 -15 137 -15 164 0 18 9 30 5 75 -24 108 -72 206 -100 340 -99 106 1
191 25 280 78 64 38 142 109 177 161 22 32 23 32 122 36 88 3 110 8 168 35
159 75 259 249 240 421 -4 41 -2 45 51 95 101 97 152 244 129 370 -17 90 -63
175 -127 236 -68 64 -144 100 -244 115 -75 11 -77 12 -141 76 -36 36 -93 80
-127 98 -115 61 -270 85 -388 62z m281 -179 c85 -40 133 -78 175 -140 19 -28
41 -53 49 -57 8 -4 51 -8 95 -9 99 -1 157 -26 215 -92 40 -46 70 -120 70 -173
0 -89 -69 -199 -152 -241 -53 -27 -64 -55 -47 -116 50 -180 -66 -351 -240
-353 -37 0 -42 2 -36 18 16 39 17 197 1 265 -17 73 -59 165 -85 184 -35 27
-85 13 -106 -28 -14 -26 -13 -33 17 -106 30 -70 33 -88 33 -178 -1 -81 -5
-111 -24 -158 -72 -182 -272 -298 -460 -268 -81 13 -173 57 -233 110 -53 47
-90 53 -132 20 -30 -23 -72 -27 -104 -10 -15 8 -50 10 -110 5 l-89 -7 -6 76
c-7 83 -29 150 -60 185 -27 29 -79 30 -107 0 -25 -27 -25 -48 0 -118 24 -67
25 -101 4 -169 -19 -64 -77 -131 -142 -163 -46 -22 -56 -23 -426 -28 l-379 -5
-19 -26 c-25 -33 -17 -83 15 -102 16 -9 138 -13 462 -17 l440 -5 0 -120 0
-120 -790 0 -790 0 0 120 0 120 203 5 c199 5 204 6 223 29 25 30 24 62 -2 95
-20 25 -24 26 -121 26 l-100 0 7 28 c9 39 54 92 110 129 59 39 69 55 62 102
-11 82 45 135 118 111 52 -17 79 -6 119 50 45 62 97 97 168 112 76 16 153 -1
216 -49 58 -45 96 -47 129 -9 31 36 29 58 -7 99 -30 35 -124 89 -174 101 -26
6 -28 10 -23 40 17 107 117 230 233 287 58 29 80 34 159 37 104 5 160 -9 256
-62 48 -26 61 -29 85 -21 37 13 59 56 47 93 -11 31 -88 82 -175 114 l-57 20
15 37 c49 118 182 189 303 162 57 -13 82 -2 118 51 50 75 119 74 162 -2 25
-46 47 -54 108 -45 25 4 84 1 130 -6 l84 -12 67 70 c110 116 203 156 349 149
66 -3 95 -10 149 -35z"/>
<path d="M2885 4696 c-131 -57 -174 -265 -56 -268 40 -1 81 38 81 76 0 47 70
75 104 41 8 -9 18 -31 22 -50 3 -18 14 -41 24 -50 25 -22 76 -22 101 1 18 16
20 28 17 77 -8 109 -94 187 -207 187 -31 -1 -70 -7 -86 -14z"/>
<path d="M2526 4219 c-32 -25 -34 -60 -4 -115 21 -40 21 -43 5 -68 -25 -37
-62 -44 -97 -17 -41 29 -83 27 -109 -5 -42 -54 -16 -106 71 -144 187 -80 364
122 264 303 -20 38 -60 67 -89 67 -8 0 -26 -9 -41 -21z"/>
<path d="M4133 3759 c-135 -26 -249 -122 -297 -250 -16 -43 -21 -47 -58 -53
-65 -11 -147 -55 -202 -109 l-51 -50 -90 -1 c-73 -1 -98 -5 -132 -24 -89 -47
-146 -129 -160 -227 -5 -43 -9 -48 -54 -71 -93 -47 -165 -129 -198 -226 -16
-49 -19 -51 -74 -68 -136 -42 -234 -138 -272 -265 -12 -39 -14 -40 -64 -46
-59 -8 -112 -43 -138 -92 -22 -40 -31 -261 -14 -324 15 -56 52 -97 106 -120
l45 -18 -6 -50 c-3 -27 -36 -421 -74 -875 -59 -718 -66 -828 -54 -851 23 -45
68 -52 109 -16 l26 22 69 835 c38 459 72 859 75 888 l6 52 587 -2 587 -3 16
-180 c8 -99 19 -188 23 -198 19 -41 72 -48 112 -14 l27 24 -13 183 c-8 110
-10 185 -4 187 38 13 82 44 108 76 31 38 31 40 34 175 4 171 0 194 -48 246
l-39 42 22 32 c12 18 27 30 32 27 152 -65 246 -83 357 -65 84 13 163 39 226
76 64 38 163 138 200 204 20 36 44 62 67 74 57 31 140 128 166 193 18 46 23
77 23 148 -1 117 -26 184 -98 263 -48 52 -54 62 -59 116 -16 159 -132 267
-288 268 -54 1 -79 -5 -121 -25 l-52 -26 -35 31 c-47 41 -126 77 -198 88 -65
11 -72 11 -130 -1z m173 -164 c48 -20 100 -71 124 -123 20 -42 22 -57 17 -140
-6 -90 -6 -94 19 -119 20 -20 32 -24 57 -19 42 8 64 37 73 92 7 50 1 179 -11
206 -9 23 36 51 85 51 52 0 99 -29 123 -77 18 -34 19 -45 10 -90 -13 -65 -8
-79 52 -124 85 -64 122 -143 112 -234 -20 -170 -201 -269 -352 -193 -27 14
-62 32 -77 40 -72 41 -135 -59 -77 -121 30 -32 128 -80 179 -89 22 -4 40 -11
40 -15 0 -16 -86 -79 -143 -105 -138 -64 -285 -51 -423 37 -92 57 -123 50
-160 -37 -38 -92 -119 -152 -219 -162 l-55 -6 16 39 c65 155 -55 384 -153 292
-29 -27 -30 -66 -2 -113 39 -65 22 -151 -38 -191 -26 -18 -54 -19 -420 -22
-216 -2 -393 0 -393 3 0 19 44 87 72 110 44 38 82 52 156 61 75 8 92 24 104
101 18 113 78 180 192 214 79 24 91 41 82 116 -11 93 36 161 117 170 77 9 139
-40 152 -120 12 -71 62 -105 115 -77 45 24 43 122 -5 208 -23 41 -24 47 -10
68 28 43 100 76 183 84 89 9 106 23 116 98 12 93 92 178 189 203 38 9 110 2
153 -16z m-351 -1500 l0 -120 -734 -3 c-581 -2 -736 0 -743 10 -9 15 -11 199
-2 222 6 15 78 16 743 14 l736 -3 0 -120z"/>
<path d="M4015 3215 c-144 -51 -194 -275 -61 -275 29 0 58 32 71 78 23 82 105
80 126 -3 18 -72 70 -95 123 -54 72 57 -7 223 -123 258 -50 14 -87 13 -136 -4z"/>
<path d="M1714 2062 c-36 -24 -36 -28 36 -1034 l70 -983 26 -23 c38 -33 91
-26 114 17 7 13 -11 311 -60 992 -39 536 -70 980 -70 987 0 37 -81 68 -116 44z"/>
<path d="M3884 1175 c-24 -24 -25 -31 -20 -83 4 -31 25 -277 47 -547 29 -354
44 -496 55 -512 29 -45 103 -39 125 10 8 17 -1 163 -35 567 -43 513 -47 545
-68 567 -29 31 -72 30 -104 -2z"/>
</g>
</svg>
